<?xml version="1.0" encoding="utf-8"?><!DOCTYPE svg  PUBLIC '-//W3C//DTD SVG 1.1//EN'  'http://www.w3.org/Graphics/SVG/1.1/DTD/svg11.dtd'><svg enable_background="new 0 0 1000 952" height="952px" pretty_print="False" style="stroke-linejoin: round; stroke:#000; fill: none;" version="1.1" viewBox="0 0 1000 952" width="1000px" xmlns="http://www.w3.org/2000/svg" xmlns:xlink="http://www.w3.org/1999/xlink"><defs><style type="text/css"><![CDATA[path { fill-rule: evenodd; }]]></style></defs><metadata><views><view h="952.610443465" padding="0" w="1000"><proj id="laea" lat0="9.999276" lon0="-84.0511639848"/><bbox h="39.26" w="41.25" x="976.98" y="984.93"/></view></views></metadata><g class="" id="cantons" stroke="#f6f6f6" stroke-width="1"><path d="M570.066009,354.436678L567.641739,356.744012L563.679355,357.930728L556.050034,361.367560L553.232144,362.249047L550.272833,364.480611L548.884785,365.775374L544.835978,370.457471L541.031802,371.009141L539.374200,375.536300L540.254314,375.243002L542.812466,374.635890L544.922933,373.861000L548.547364,373.313643L550.296926,372.369157L554.736233,372.426787L559.215846,370.600610L563.933330,367.782055L567.727448,363.375019L569.294660,358.940327L570.066009,354.436678Z " data-id="11408" id="11408"/><path d="M527.341106,130.005726L525.245433,189.943701L525.385178,240.669102L525.185753,278.316745L529.518664,281.336725L535.289357,288.617147L542.537486,294.604983L550.652985,296.533176L553.659660,299.588121L562.160993,299.264785L573.427069,309.619119L589.024046,305.780633L595.193040,307.488730L600.851177,303.567371L607.275218,294.963927L617.506585,272.895248L615.580479,256.007981L611.235629,250.265260L608.467692,242.387212L609.255420,238.082291L622.612852,227.841326L623.879091,218.100057L618.111714,201.670343L619.114072,172.084952L621.277510,167.384013L631.095289,160.025281L641.509660,155.608866L659.224204,155.908462L657.071090,151.488219L646.925528,142.606620L648.299660,136.677293L643.745526,134.528388L643.459232,134.790128L622.398169,141.673685L604.564648,149.566792L593.730167,153.282128L584.957068,147.659113L579.956078,141.751506L563.622772,128.793960L554.191063,136.116414L545.381590,134.140644L535.891362,134.745544L534.100984,129.493971L529.162112,130.034985L527.341106,130.005726Z " data-id="11409" id="11409"/><path d="M637.353898,345.744819L657.454462,354.225108L658.288510,348.912897L662.569303,346.461144L679.516796,343.285889L684.168106,338.134141L689.285025,327.228474L688.811919,319.623816L690.819417,311.857096L710.057498,292.209255L724.147015,285.431510L724.144996,278.890084L727.612424,276.009148L727.443634,275.669657L724.910957,270.527663L709.993755,267.432728L696.271119,270.991731L684.930608,251.615101L671.431893,256.926276L669.805397,275.890666L655.858298,287.767815L648.226452,303.370677L647.065340,330.680651L642.397874,339.736498L637.353898,345.744819Z " data-id="11410" id="11410"/><path d="M844.850883,358.638515L845.262106,359.573012L845.752611,359.156749L844.850883,358.638515Z M826.108515,349.745340L813.486443,352.788550L808.223893,358.028579L811.273422,377.209335L811.241399,390.051967L809.775832,393.756446L802.872008,393.902556L798.555891,398.758279L795.496928,412.690414L779.572112,421.748044L769.942166,413.168860L769.922126,413.160835L764.330398,419.509896L742.801517,449.266455L740.669046,462.950737L712.786590,488.226867L714.731805,491.504791L719.121081,513.086463L719.379150,514.115257L724.290906,518.502178L727.149224,517.129805L731.329294,510.537514L732.366125,496.381819L734.339526,493.441254L743.378887,489.429958L748.781180,483.437324L763.897846,479.466500L771.442152,467.065253L787.220955,463.272512L817.607144,469.708102L828.588155,467.763082L833.159588,475.703404L842.251306,473.160554L871.182666,472.652871L877.255482,476.591337L896.741448,469.284399L901.895948,462.225365L903.203350,455.526641L894.319073,449.447109L887.514869,441.407683L898.842396,436.936499L902.570050,430.531741L902.569883,430.483924L897.966174,423.823552L879.078739,401.140884L860.781129,376.283873L860.155447,364.176493L854.015789,361.622261L844.368679,361.069922L837.752858,362.998587L826.108943,349.899845L826.108515,349.745340Z " data-id="11411" id="11411"/><path d="M787.253888,303.107251L784.141007,299.118379L783.516636,299.864273L786.721770,306.766132L786.770594,306.766017L787.667903,305.518880L787.337074,304.191280L787.334485,303.111842L787.253888,303.107251Z M786.859528,307.180609L771.957929,308.405972L762.164487,319.630979L761.236170,327.725144L756.446636,330.915123L746.408117,346.448349L732.642386,358.774355L732.920457,362.351649L736.645372,368.786216L775.681689,368.440327L768.630800,379.675249L764.481749,380.514945L765.901591,393.201329L768.088989,398.335636L767.626932,407.223192L769.922126,413.160835L769.942166,413.168860L779.572112,421.748044L795.496928,412.690414L798.555891,398.758279L802.872008,393.902556L809.775832,393.756446L811.241399,390.051967L811.273422,377.209335L808.223893,358.028579L813.486443,352.788550L826.108515,349.745340L826.108297,349.666443L818.559339,339.309976L810.038172,330.533134L802.571689,319.594321L786.671235,298.796534L786.935999,307.180428L786.859528,307.180609Z " data-id="11412" id="11412"/><path d="M643.745526,134.528388L648.299660,136.677293L646.925528,142.606620L657.071090,151.488219L659.224204,155.908462L641.509660,155.608866L631.095289,160.025281L621.277510,167.384013L619.114072,172.084952L618.111714,201.670343L623.879091,218.100057L622.612852,227.841326L609.255420,238.082291L608.467692,242.387212L611.235629,250.265260L615.580479,256.007981L617.506585,272.895248L607.275218,294.963927L600.851177,303.567371L595.193040,307.488730L594.906491,308.072479L593.495732,310.939203L590.502581,318.749004L590.018221,320.005200L620.629818,336.472907L628.343651,340.620338L637.347150,345.769330L637.353898,345.744819L642.397874,339.736498L647.065340,330.680651L648.226452,303.370677L655.858298,287.767815L669.805397,275.890666L671.431893,256.926276L684.930608,251.615101L696.271119,270.991731L709.993755,267.432728L724.910957,270.527663L727.443634,275.669657L727.612424,276.009148L728.905952,275.737901L744.544660,276.049271L748.591311,274.854928L763.172105,273.853121L763.171767,273.696525L752.277946,259.026023L737.862981,236.723140L714.850658,194.262034L700.741742,155.089679L694.352064,127.884689L675.312755,89.553893L670.084737,87.324047L666.601156,96.913827L669.599675,102.345260L668.728282,108.091994L670.860105,122.681064L665.152506,128.780060L646.718166,132.209378L643.745526,134.528388Z " data-id="11413" id="11413"/><path d="M763.172105,273.853121L748.591311,274.854928L744.544660,276.049271L728.905952,275.737901L727.612424,276.009148L724.144996,278.890084L724.147015,285.431510L710.057498,292.209255L690.819417,311.857096L688.811919,319.623816L689.285025,327.228474L684.168106,338.134141L679.516796,343.285889L662.569303,346.461144L658.288510,348.912897L657.454462,354.225108L687.565022,368.599877L736.645372,368.786216L732.920457,362.351649L732.642386,358.774355L746.408117,346.448349L756.446636,330.915123L761.236170,327.725144L762.164487,319.630979L771.957929,308.405972L786.859528,307.180609L786.771586,307.180817L786.690695,306.931768L786.609518,306.931961L786.609123,306.766399L786.721770,306.766132L783.516636,299.864273L784.141007,299.118379L787.253888,303.107251L787.253501,302.945874L784.379434,296.477786L762.675025,271.041128L763.252687,273.862512L763.172105,273.853121Z " data-id="11414" id="11414"/><path d="M980.874227,473.809489L980.466883,474.391643L980.958823,474.307036L980.874227,473.809489Z M902.570050,430.531741L898.842396,436.936499L887.514869,441.407683L894.319073,449.447109L903.203350,455.526641L901.895948,462.225365L896.741448,469.284399L877.255482,476.591337L871.182666,472.652871L842.251306,473.160554L833.159588,475.703404L828.588155,467.763082L817.607144,469.708102L787.220955,463.272512L771.442152,467.065253L763.897846,479.466500L748.781180,483.437324L743.378887,489.429958L734.339526,493.441254L732.366125,496.381819L731.329294,510.537514L727.149224,517.129805L724.290906,518.502178L725.068166,522.064570L726.321349,527.819652L739.449283,550.815071L742.613968,553.130323L745.450357,554.183486L751.412497,561.551930L764.886322,557.401225L773.389262,547.262402L785.775446,556.789305L804.371775,566.374139L815.168396,564.509663L826.055780,577.449244L844.367387,585.879912L849.375132,593.343994L852.106796,610.664309L871.588869,616.168107L873.992704,629.647809L877.763860,639.241627L881.769391,642.259604L889.499162,644.531442L888.846342,640.973433L888.069746,640.446748L887.376535,638.378622L887.235547,635.684671L886.069871,521.617113L911.864560,515.435065L906.479180,508.286183L905.560656,497.472294L902.971351,497.846317L904.010997,486.296308L908.145149,485.752381L910.818817,478.975463L931.362854,485.776547L931.810752,490.134021L941.732049,488.362977L947.488294,497.971748L952.479309,500.286863L965.124551,513.806419L967.969746,510.073465L983.212992,511.924229L985.948055,503.666969L984.219195,498.895608L992.811561,497.727376L995.516737,491.095759L980.166247,475.965571L979.067458,472.920064L956.399289,472.251147L946.649303,469.550888L922.928340,450.049643L921.930514,445.736916L915.539382,443.186995L902.651328,430.531454L902.570050,430.531741Z " data-id="11415" id="11415"/><path d="M509.206685,526.445320L511.028106,526.527191L512.104868,528.003068L512.399360,528.003205L516.082432,529.415362L517.803357,528.835136L509.206775,526.258247L509.206685,526.445320Z M532.656586,482.132580L525.051233,490.407610L517.514767,497.963067L512.646289,498.720294L508.380312,505.649835L499.832048,508.477858L498.781551,512.630513L503.102538,514.667521L510.511429,525.108352L510.599278,525.096740L516.738472,526.925710L523.941654,534.399442L524.760106,542.286077L529.425110,550.920381L534.831281,548.182349L536.468147,552.914224L542.937862,551.504311L562.185462,559.889570L584.714680,568.352722L613.642036,589.010361L613.790691,588.998623L617.333817,583.934871L616.442048,573.826041L619.504227,562.082853L609.436246,557.967920L605.404517,553.685193L600.976578,541.072646L596.235111,540.037325L586.540253,546.580981L580.798239,541.357878L578.034360,534.438568L573.527526,535.458419L571.275484,530.946280L570.762509,528.359597L559.728180,521.306305L555.738643,515.047698L550.528516,512.946895L550.812935,496.618301L531.706338,489.959565L532.656586,482.132580Z " data-id="11416" id="11416"/><path d="M742.613968,553.130323L738.507032,558.707433L731.554864,567.608326L724.419552,579.652209L720.928736,582.084592L718.155468,594.271313L714.730786,599.122755L721.755534,605.377475L727.983576,605.287821L727.820341,618.565506L723.492005,622.995006L723.398566,629.185583L713.523585,638.885896L707.222399,639.604070L704.691883,641.291468L712.554027,648.778873L719.028624,651.103435L736.030668,663.886541L741.671384,664.889083L746.154727,659.737172L760.834757,668.906627L762.935972,677.005884L778.701879,677.173153L793.803210,685.249138L801.389033,692.020266L811.468741,704.995283L823.733558,719.429034L826.546616,718.179286L831.982606,721.424910L839.243055,725.961508L849.339448,730.054007L851.348384,725.509118L849.551752,712.917711L843.697006,710.582094L841.163804,706.084582L844.667465,697.906745L849.951242,699.004371L854.920809,683.070494L849.294384,673.285316L858.816709,673.178222L865.078197,671.105530L866.987197,666.384484L878.138038,657.885169L881.303879,644.604676L881.769391,642.259604L877.763860,639.241627L873.992704,629.647809L871.588869,616.168107L852.106796,610.664309L849.375132,593.343994L844.367387,585.879912L826.055780,577.449244L815.168396,564.509663L804.371775,566.374139L785.775446,556.789305L773.389262,547.262402L764.886322,557.401225L751.412497,561.551930L745.450357,554.183486L742.613968,553.130323Z " data-id="11417" id="11417"/><path d="M900.712910,750.289950L895.687572,754.841216L892.046542,755.310279L888.335446,753.360343L881.324539,751.330970L880.409301,756.649630L871.765469,765.790825L868.842589,775.474660L870.539707,781.611361L870.402375,795.246950L863.375870,802.005568L863.299376,805.416058L875.151812,820.484625L874.602334,826.150659L865.863614,835.203063L860.527798,848.008271L855.732475,854.788717L857.178560,858.258006L858.057340,857.698111L866.465654,856.388017L892.243215,832.120277L913.818293,822.806116L916.191946,817.720271L917.270965,797.291939L920.113102,792.308554L917.978531,770.680571L903.737634,752.530176L900.712910,750.289950Z " data-id="11418" id="11418"/><path d="M887.376535,638.378622L888.069746,640.446748L888.846342,640.973433L889.499162,644.531442L881.769391,642.259604L881.303879,644.604676L878.138038,657.885169L866.987197,666.384484L865.078197,671.105530L858.816709,673.178222L849.294384,673.285316L854.920809,683.070494L849.951242,699.004371L844.667465,697.906745L841.163804,706.084582L843.697006,710.582094L849.551752,712.917711L851.348384,725.509118L849.339448,730.054007L855.108083,729.252372L863.983369,725.039906L872.794888,727.912024L877.583083,727.050296L880.551318,730.995961L875.612669,738.858606L880.409169,747.412849L881.324539,751.330970L888.335446,753.360343L892.046542,755.310279L895.687572,754.841216L900.712910,750.289950L899.106586,749.100941L899.765629,728.111398L907.864840,722.160455L903.905553,712.992206L912.809038,706.306737L922.017956,704.663547L924.411983,701.984930L936.442786,699.112229L943.408256,690.006933L953.435995,680.716886L947.832358,672.795110L945.859176,665.531720L936.007725,660.025794L923.887178,655.229572L905.264483,643.990948L900.200485,634.991875L887.444986,638.468947L887.376535,638.378622Z " data-id="11419" id="11419"/><path d="M367.134287,407.035357L366.939658,406.739415L367.184728,406.380980L366.796089,406.380218L366.468366,406.545734L366.387105,406.545574L366.547773,407.043770L367.134287,407.035357Z M367.615929,405.386063L367.368399,405.800380L367.450675,405.883620L367.527225,405.883770L367.867658,405.386555L367.615929,405.386063Z M409.976325,362.232201L409.308840,356.686997L404.754021,352.051087L388.937492,351.199986L386.745426,341.480636L380.767574,336.520980L376.190576,327.131388L372.460184,327.046904L375.000587,336.578989L375.057159,342.585924L368.201894,348.857203L368.180963,351.726099L372.014388,352.435818L376.210078,357.082181L360.743360,367.158410L360.571297,371.018580L353.942361,373.274935L353.942278,373.314382L356.541177,381.704590L363.067366,389.438326L359.869015,394.080447L368.435005,404.474083L368.493594,404.474197L371.831529,399.610019L372.235080,394.219884L374.385145,391.474867L377.996392,390.307443L381.541215,382.684674L393.444651,379.333362L397.225264,374.304429L408.506804,367.469610L409.976325,362.232201Z " data-id="11420" id="11420"/><path d="M525.385178,240.669102L522.837082,241.723109L520.450769,248.956842L516.621652,276.218265L509.304907,288.425821L506.394519,288.953555L501.156084,288.735142L503.282531,292.262412L504.350982,295.819235L507.128977,304.080442L509.948198,306.783721L514.792473,312.568610L513.481742,327.211893L493.602231,355.084839L488.856663,356.913779L485.254568,358.264605L482.928423,361.105131L480.425042,363.861486L478.351587,362.571792L475.775933,362.552012L473.954062,364.125057L472.666073,365.950764L471.598596,369.295373L469.178702,375.455344L466.966842,382.952777L464.387387,386.336825L469.257895,389.345066L476.441196,389.064463L495.351027,385.780149L500.360501,383.853021L504.625249,380.511704L506.782074,378.033664L509.819542,375.351610L514.206316,373.351441L517.671075,373.527167L515.545480,366.683361L520.057893,362.708232L521.745535,359.164305L523.779803,352.028384L523.763019,347.907040L525.870160,343.458893L525.935987,335.748180L524.565742,313.200357L525.185753,278.316745L525.385178,240.669102Z " data-id="11366" id="11366"/><path d="M422.586485,291.627300L426.572899,295.108375L432.868602,298.795519L439.342080,309.648148L445.301514,310.391039L450.019559,311.071218L453.542051,310.083528L457.873182,309.520611L464.409067,308.361079L472.240614,306.001515L476.215980,312.529305L478.217361,307.545979L481.476935,303.065676L479.906401,300.509611L475.821710,293.178294L471.713327,288.360646L470.672925,285.786374L455.135129,284.943544L443.881430,281.386291L429.475945,286.965497L422.586485,291.627300Z " data-id="11367" id="11367"/><path d="M473.954062,364.125057L469.484850,362.809460L467.983368,359.622406L466.471020,355.897400L466.231288,353.306199L462.112750,351.801720L458.007911,350.835296L454.099739,350.669811L452.123050,353.232053L449.817817,356.875407L445.928600,357.426842L443.366691,357.854184L441.539199,359.334276L440.438580,361.514513L439.408647,362.888244L438.252723,366.412293L439.701741,371.124754L438.656671,375.633637L437.077476,379.977183L437.226550,382.483179L435.698261,385.301166L436.912562,387.868863L441.004310,388.119818L446.300947,387.083974L452.925780,385.654812L453.092583,385.202243L460.370930,385.278556L464.387387,386.336825L466.966842,382.952777L469.178702,375.455344L471.598596,369.295373L472.666073,365.950764L473.954062,364.125057Z " data-id="11368" id="11368"/><path d="M500.709823,306.135870L489.002773,313.172234L480.612872,325.227481L472.373492,343.372583L468.541040,346.252960L466.231288,353.306199L466.471020,355.897400L467.983368,359.622406L469.484850,362.809460L473.954062,364.125057L475.775933,362.552012L478.351587,362.571792L480.425042,363.861486L482.928423,361.105131L485.254568,358.264605L486.330090,355.190907L493.810542,331.686469L504.943741,319.377610L505.470612,308.607614L504.657863,304.507349L500.709823,306.135870Z M525.385178,240.669102L525.245433,189.943701L518.467937,191.649895L506.177610,210.175346L505.486941,217.813319L495.207523,238.884657L496.891433,246.009817L502.836727,260.367064L496.718198,277.920015L496.889018,281.141641L498.275924,286.931382L499.182332,287.715205L501.156084,288.735142L506.394519,288.953555L509.304907,288.425821L516.621652,276.218265L520.450769,248.956842L522.837082,241.723109L525.385178,240.669102Z " data-id="11369" id="11369"/><path d="M305.733661,118.762824L301.328828,127.384932L294.327253,138.494468L290.376599,139.936123L280.416712,153.534721L274.577176,157.623098L276.466067,162.775172L276.842543,167.695335L279.481601,174.708398L285.768288,182.532773L295.517162,190.446085L299.001016,195.647187L315.630652,198.460817L319.306112,200.430203L326.731982,196.031497L335.699080,189.442601L344.676019,179.445490L361.396738,178.662568L362.816105,175.130462L370.458177,172.516273L376.877359,170.558710L375.153812,165.137409L372.308040,149.702996L368.900228,147.819859L366.792681,141.150883L356.716158,134.238799L345.054997,112.397652L345.313325,108.358801L332.112609,107.706382L326.667774,117.163858L322.157433,117.184732L312.611337,125.313579L308.570751,122.902736L305.733661,118.762824Z " data-id="11370" id="11370"/><path d="M312.210501,78.805491L315.056634,81.694568L309.027807,85.270964L313.332605,102.887263L307.655254,113.785889L305.733661,118.762824L308.570751,122.902736L312.611337,125.313579L322.157433,117.184732L326.667774,117.163858L332.112609,107.706382L345.313325,108.358801L345.054997,112.397652L356.716158,134.238799L366.792681,141.150883L368.900228,147.819859L372.308040,149.702996L375.153812,165.137409L376.877359,170.558710L379.674617,169.141194L391.799531,172.504748L396.664327,168.526557L407.132635,165.835602L409.541727,162.905369L413.024572,149.549597L424.237983,140.920012L425.198328,136.684426L415.978706,132.532183L411.893383,128.249311L414.976850,105.671147L420.507949,96.564824L435.096716,99.856831L437.965631,94.135421L433.050637,88.349292L439.057903,75.799119L429.848035,65.643167L408.162439,56.369511L405.217332,50.895836L394.790028,54.324520L373.318283,42.050044L328.822281,69.069189L312.210501,78.805491Z " data-id="11371" id="11371"/><path d="M466.018361,341.121844L468.761665,326.618250L472.892183,317.815958L476.215980,312.529305L472.240614,306.001515L464.409067,308.361079L457.873182,309.520611L453.542051,310.083528L450.019559,311.071218L449.870755,315.736600L449.256353,323.192066L446.829879,325.586036L445.443987,334.137053L446.349537,334.918084L449.888506,338.143640L451.728301,340.781779L452.941845,343.350173L454.039173,348.159158L454.099739,350.669811L458.007911,350.835296L462.112750,351.801720L466.231288,353.306199L468.541040,346.252960L466.018361,341.121844Z " data-id="11372" id="11372"/><path d="M437.077476,379.977183L436.339507,378.831986L427.130763,383.374720L416.344051,385.000267L399.567615,381.312629L381.598974,390.469440L377.996392,390.307443L374.385145,391.474867L372.235080,394.219884L371.831529,399.610019L374.142840,403.407675L395.787560,405.996763L396.327243,409.928380L401.029738,413.395502L403.562809,415.303790L407.404305,415.257498L415.693570,401.956992L419.749299,400.775521L432.720192,390.577961L436.912562,387.868863L435.698261,385.301166L437.226550,382.483179L437.077476,379.977183Z " data-id="11373" id="11373"/><path d="M454.099739,350.669811L454.039173,348.159158L452.941845,343.350173L451.728301,340.781779L449.888506,338.143640L446.349537,334.918084L442.871483,337.788892L438.352885,348.933899L436.132503,352.397132L436.185908,358.132325L441.539199,359.334276L443.366691,357.854184L445.928600,357.426842L449.817817,356.875407L452.123050,353.232053L454.099739,350.669811Z " data-id="11374" id="11374"/><path d="M507.128977,304.080442L504.657863,304.507349L505.470612,308.607614L504.943741,319.377610L493.810542,331.686469L486.330090,355.190907L485.254568,358.264605L488.856663,356.913779L493.602231,355.084839L513.481742,327.211893L514.792473,312.568610L509.948198,306.783721L507.128977,304.080442Z " data-id="11375" id="11375"/><path d="M439.057903,75.799119L433.050637,88.349292L437.965631,94.135421L435.096716,99.856831L420.507949,96.564824L414.976850,105.671147L411.893383,128.249311L415.978706,132.532183L425.198328,136.684426L424.237983,140.920012L413.024572,149.549597L409.541727,162.905369L407.132635,165.835602L396.664327,168.526557L391.799531,172.504748L379.674617,169.141194L376.877359,170.558710L370.458177,172.516273L362.816105,175.130462L361.396738,178.662568L344.676019,179.445490L335.699080,189.442601L326.731982,196.031497L319.306112,200.430203L326.300725,207.961016L341.897845,215.814430L341.801905,219.311016L342.062611,222.978750L347.281215,222.487708L362.204927,231.610845L366.673349,229.524658L374.489072,234.073415L383.036464,224.625579L389.224909,224.197376L398.098889,228.446910L410.640580,230.274711L412.310790,233.457255L403.466602,248.833875L384.910932,254.868785L375.847182,261.286482L377.122300,266.452348L394.044940,269.781925L399.160944,268.753812L407.205326,256.893069L417.274965,248.206609L421.456994,256.251536L420.163870,286.758680L422.586485,291.627300L429.475945,286.965497L443.881430,281.386291L455.135129,284.943544L470.672925,285.786374L471.713327,288.360646L474.805544,287.918687L486.757538,290.737083L491.166968,289.810542L494.359097,282.822484L496.889018,281.141641L496.718198,277.920015L502.836727,260.367064L496.891433,246.009817L495.207523,238.884657L505.486941,217.813319L506.177610,210.175346L518.467937,191.649895L525.245433,189.943701L527.341106,130.005726L525.237982,129.973645L518.772319,129.476023L513.633082,131.960970L510.578275,126.583141L502.427088,120.690764L506.765737,119.416881L507.758492,106.615034L483.257989,92.200145L477.195326,91.907686L472.794850,83.744471L471.882348,73.857648L461.942641,72.491365L443.958957,78.891813L439.719724,76.528805L439.057903,75.799119Z " data-id="11376" id="11376"/><path d="M409.976325,362.232201L408.506804,367.469610L397.225264,374.304429L393.444651,379.333362L381.541215,382.684674L377.996392,390.307443L381.598974,390.469440L399.567615,381.312629L416.344051,385.000267L427.130763,383.374720L436.339507,378.831986L437.077476,379.977183L438.656671,375.633637L439.701741,371.124754L438.252723,366.412293L436.908371,365.910061L428.933801,369.972744L425.719671,369.250595L425.724789,358.584526L415.324124,357.691783L412.214376,361.087125L409.976325,362.232201Z " data-id="11377" id="11377"/><path d="M342.062611,222.978750L342.015841,222.998368L343.960411,234.289574L344.014731,234.312108L343.866035,239.335693L343.040463,245.629960L342.610962,250.031916L346.472308,256.028799L344.731863,257.148619L342.587602,264.014348L338.888283,270.138655L344.036895,277.723047L353.870309,284.651355L368.707195,278.536753L371.751551,279.627800L374.772393,283.497378L378.412816,287.350682L380.066824,293.225481L372.883508,307.846492L376.307991,310.181011L376.156956,322.200349L376.190576,327.131388L380.767574,336.520980L386.745426,341.480636L388.937492,351.199986L404.754021,352.051087L409.308840,356.686997L409.976325,362.232201L412.214376,361.087125L415.324124,357.691783L425.724789,358.584526L425.719671,369.250595L428.933801,369.972744L436.908371,365.910061L438.252723,366.412293L439.408647,362.888244L440.438580,361.514513L441.539199,359.334276L436.185908,358.132325L436.132503,352.397132L438.352885,348.933899L442.871483,337.788892L446.349537,334.918084L445.443987,334.137053L446.829879,325.586036L449.256353,323.192066L449.870755,315.736600L450.019559,311.071218L445.301514,310.391039L439.342080,309.648148L432.868602,298.795519L426.572899,295.108375L422.586485,291.627300L420.163870,286.758680L421.456994,256.251536L417.274965,248.206609L407.205326,256.893069L399.160944,268.753812L394.044940,269.781925L377.122300,266.452348L375.847182,261.286482L384.910932,254.868785L403.466602,248.833875L412.310790,233.457255L410.640580,230.274711L398.098889,228.446910L389.224909,224.197376L383.036464,224.625579L374.489072,234.073415L366.673349,229.524658L362.204927,231.610845L347.281215,222.487708L342.062611,222.978750Z " data-id="11378" id="11378"/><path d="M203.680295,42.412751L200.313710,60.622028L196.769335,60.554142L183.839175,51.822165L165.481249,69.185638L153.520652,75.612281L152.900793,76.647553L156.663544,83.100352L169.115110,106.917621L173.988660,111.375790L188.471198,118.205062L190.271094,127.752091L191.601987,132.021893L194.585543,134.818378L200.170016,135.315043L222.874767,133.424483L234.049420,138.445674L239.619794,146.195761L254.962853,147.437975L258.729728,149.676324L266.284273,151.014414L270.137308,153.070867L273.619468,154.330518L274.577176,157.623098L280.416712,153.534721L290.376599,139.936123L294.327253,138.494468L301.328828,127.384932L305.733661,118.762824L307.655254,113.785889L313.332605,102.887263L309.027807,85.270964L315.056634,81.694568L312.210501,78.805491L304.832022,83.129387L260.782693,65.740580L207.449964,44.159863L203.680295,42.412751Z " data-id="11379" id="11379"/><path d="M499.182332,287.715205L498.275924,286.931382L496.889018,281.141641L494.359097,282.822484L491.166968,289.810542L486.757538,290.737083L474.805544,287.918687L471.713327,288.360646L475.821710,293.178294L479.906401,300.509611L481.476935,303.065676L478.217361,307.545979L476.215980,312.529305L472.892183,317.815958L468.761665,326.618250L466.018361,341.121844L468.541040,346.252960L472.373492,343.372583L480.612872,325.227481L489.002773,313.172234L500.709823,306.135870L504.657863,304.507349L507.128977,304.080442L504.350982,295.819235L503.282531,292.262412L501.156084,288.735142L499.182332,287.715205Z " data-id="11380" id="11380"/><path d="M629.581514,356.987071L626.957985,361.901652L621.404328,369.946106L622.793059,375.463925L622.763140,391.150512L626.894915,393.005883L626.166659,395.625755L628.477837,399.146274L630.181333,399.635429L636.908315,398.998162L638.308405,394.924682L639.473552,392.023440L639.943191,389.679218L640.612678,381.414139L640.609794,378.008821L644.540406,378.973059L642.459288,374.102245L638.523056,369.642359L630.970900,362.595622L630.489550,361.175880L629.581514,356.987071Z " data-id="11381" id="11381"/><path d="M606.486616,373.054288L603.805202,372.232874L601.304963,374.991739L598.265868,377.586103L592.968398,378.629318L588.598293,377.765342L589.257425,382.677207L587.669501,389.890567L585.889715,393.078546L576.861683,397.451280L574.308180,398.238592L574.283557,400.659817L565.113533,416.777176L549.476900,430.112883L548.128108,432.927846L561.198948,433.645517L564.924183,433.452573L568.493571,427.349605L567.602605,416.887834L579.712352,408.038373L593.858752,405.852652L596.512437,408.915971L589.971469,416.805677L596.705244,429.794510L639.872317,483.052368L642.619386,482.705475L608.622765,430.536770L611.273796,426.608274L614.426234,418.274478L610.577820,413.720771L605.632435,408.033348L602.641664,405.607265L600.452553,403.428186L604.900063,393.623513L606.481334,379.596855L608.643338,373.979302L606.486616,373.054288Z " data-id="11382" id="11382"/><path d="M564.924183,433.452573L572.789501,428.664852L574.984793,427.708201L577.749459,434.982093L580.053296,438.322952L581.265461,440.440862L584.586664,441.872366L588.719547,443.729953L589.670898,452.935468L601.053416,456.741062L605.521040,461.187255L617.555756,462.822222L620.450955,474.930978L624.258300,477.781521L635.633243,481.315057L639.872317,483.052368L596.705244,429.794510L589.971469,416.805677L596.512437,408.915971L593.858752,405.852652L579.712352,408.038373L567.602605,416.887834L568.493571,427.349605L564.924183,433.452573Z " data-id="11383" id="11383"/><path d="M644.540406,378.973059L640.609794,378.008821L640.612678,381.414139L639.943191,389.679218L639.473552,392.023440L640.493011,396.923911L638.869838,406.022657L644.229406,410.531794L639.887498,427.416580L642.965453,429.748812L651.491265,426.459432L655.869257,427.499901L656.495430,434.384023L649.728223,446.856240L656.508226,457.957043L658.955411,466.492190L664.932655,467.307074L670.863594,466.689593L671.160721,461.123897L673.967626,453.334853L683.317943,450.915850L678.189965,441.920809L684.214924,431.529586L684.106998,424.271995L676.095314,413.656609L675.983298,409.625935L657.466592,401.012980L651.736234,389.076272L658.061864,383.428403L646.245642,379.731187L644.540406,378.973059Z " data-id="11384" id="11384"/><path d="M588.598293,377.765342L583.379206,378.448502L579.049846,379.106091L575.863325,379.462948L573.851648,380.594713L573.528899,385.264178L569.826033,389.668140L565.466830,392.746348L565.047055,397.149821L569.914291,396.477851L572.847688,396.576067L574.308180,398.238592L576.861683,397.451280L585.889715,393.078546L587.669501,389.890567L589.257425,382.677207L588.598293,377.765342Z " data-id="11385" id="11385"/><path d="M629.581514,356.987071L630.929090,354.350271L630.585168,348.176130L628.887423,344.280770L628.343651,340.620338L620.629818,336.472907L590.018221,320.005200L592.581555,326.474256L595.983457,341.259710L609.980344,350.636582L615.271709,369.581140L613.921480,372.307971L608.643338,373.979302L606.481334,379.596855L604.900063,393.623513L600.452553,403.428186L602.641664,405.607265L605.632435,408.033348L606.972332,404.948630L612.600276,402.909328L615.254834,402.565033L621.731185,399.066944L626.166659,395.625755L626.894915,393.005883L622.763140,391.150512L622.793059,375.463925L621.404328,369.946106L626.957985,361.901652L629.581514,356.987071Z " data-id="11386" id="11386"/><path d="M639.473552,392.023440L638.308405,394.924682L636.908315,398.998162L630.181333,399.635429L628.477837,399.146274L626.166659,395.625755L621.731185,399.066944L615.254834,402.565033L612.600276,402.909328L606.972332,404.948630L605.632435,408.033348L610.577820,413.720771L614.426234,418.274478L611.273796,426.608274L608.622765,430.536770L642.619386,482.705475L641.741318,486.586387L650.874848,495.920865L664.152538,497.064844L675.930464,488.385596L679.610438,489.714845L683.811437,485.589411L683.082445,481.577480L679.017108,479.094408L670.557368,468.401717L670.863594,466.689593L664.932655,467.307074L658.955411,466.492190L656.508226,457.957043L649.728223,446.856240L656.495430,434.384023L655.869257,427.499901L651.491265,426.459432L642.965453,429.748812L639.887498,427.416580L644.229406,410.531794L638.869838,406.022657L640.493011,396.923911L639.473552,392.023440Z " data-id="11387" id="11387"/><path d="M628.887423,344.280770L630.585168,348.176130L630.929090,354.350271L629.581514,356.987071L630.489550,361.175880L630.970900,362.595622L638.523056,369.642359L642.459288,374.102245L644.540406,378.973059L646.245642,379.731187L658.061864,383.428403L651.736234,389.076272L657.466592,401.012980L675.983298,409.625935L676.095314,413.656609L684.106998,424.271995L684.214924,431.529586L678.189965,441.920809L683.317943,450.915850L673.967626,453.334853L671.160721,461.123897L670.863594,466.689593L670.557368,468.401717L679.017108,479.094408L683.082445,481.577480L683.811437,485.589411L679.610438,489.714845L683.095658,493.828223L693.479000,499.804767L699.028397,501.168059L712.806123,511.079999L719.379150,514.115257L719.121081,513.086463L714.731805,491.504791L712.786590,488.226867L740.669046,462.950737L742.801517,449.266455L764.330398,419.509896L769.922126,413.160835L767.626932,407.223192L768.088989,398.335636L765.901591,393.201329L764.481749,380.514945L768.630800,379.675249L775.681689,368.440327L736.645372,368.786216L687.565022,368.599877L657.454462,354.225108L637.353898,345.744819L637.347150,345.769330L628.343651,340.620338L628.887423,344.280770Z " data-id="11388" id="11388"/><path d="M343.040463,245.629960L340.413397,246.861571L317.228830,256.136913L301.477273,245.597556L291.857230,251.123727L285.132279,251.648473L283.451652,255.633655L263.087373,264.377556L260.087544,272.697374L255.801635,275.220992L246.233781,275.454080L233.279268,278.814945L212.261322,304.241041L212.260654,304.425733L224.814382,312.522299L238.938063,316.056431L246.058592,311.845779L253.977669,314.112736L252.086605,318.091410L258.850134,324.006296L259.081350,324.007011L258.251091,314.623978L263.924323,314.485405L296.538774,328.309303L300.287371,321.582941L299.171617,315.689592L305.596902,309.791721L311.594201,308.301296L310.006698,297.577753L317.232424,273.099022L322.044791,266.521609L327.303909,264.059894L334.003611,266.048427L338.888283,270.138655L342.587602,264.014348L344.731863,257.148619L346.472308,256.028799L342.610962,250.031916L343.040463,245.629960Z " data-id="11389" id="11389"/><path d="M196.594018,278.030381L195.686776,280.621380L196.011677,280.622601L196.594018,278.030381Z M185.690540,267.365825L184.712637,267.463350L185.199283,267.963140L185.690540,267.365825Z M191.601987,132.021893L188.702278,137.018889L186.449856,143.346159L176.570110,157.111592L176.942606,166.244995L175.252374,174.083567L166.925432,182.164444L165.233912,190.001996L158.327334,206.563481L156.725355,222.555501L156.550571,230.984806L161.825640,233.281687L169.601765,236.414782L169.484464,239.197610L159.510631,245.166560L156.499582,249.269374L156.004851,251.072444L156.945464,253.559636L157.631913,256.590290L162.537335,258.090269L169.291196,258.918766L167.783140,262.985861L172.944088,266.767248L173.036163,266.753271L188.952600,268.891225L196.747313,280.708744L195.675069,283.693322L207.499741,288.469194L207.663501,288.477261L216.961300,274.547939L213.665529,265.931180L219.677448,257.094968L220.218014,249.464053L230.471552,232.544863L229.234456,208.737097L230.527749,203.147568L237.901611,196.068177L241.581004,174.559736L243.341862,170.125216L255.916258,154.404208L258.729728,149.676324L254.962853,147.437975L239.619794,146.195761L234.049420,138.445674L222.874767,133.424483L200.170016,135.315043L194.585543,134.818378L191.601987,132.021893Z " data-id="11390" id="11390"/><path d="M209.164838,302.504587L209.647861,304.249877L209.650281,303.585820L209.164838,302.504587Z M285.132279,251.648473L280.251359,251.321291L273.245695,251.043172L268.617507,238.519071L271.080029,214.170336L263.713241,205.747549L265.929515,174.503204L275.136112,170.425056L276.842543,167.695335L276.466067,162.775172L274.577176,157.623098L273.619468,154.330518L270.137308,153.070867L266.284273,151.014414L258.729728,149.676324L255.916258,154.404208L243.341862,170.125216L241.581004,174.559736L237.901611,196.068177L230.527749,203.147568L229.234456,208.737097L230.471552,232.544863L220.218014,249.464053L219.677448,257.094968L213.665529,265.931180L216.961300,274.547939L207.663501,288.477261L207.663223,288.552871L206.517529,288.963518L211.879511,296.952889L212.261857,304.093107L212.261322,304.241041L233.279268,278.814945L246.233781,275.454080L255.801635,275.220992L260.087544,272.697374L263.087373,264.377556L283.451652,255.633655L285.132279,251.648473Z " data-id="11391" id="11391"/><path d="M37.055000,210.488019L38.022781,212.652082L37.621719,211.072122L37.055000,210.488019Z M70.787554,189.661751L70.050168,190.072823L70.454820,190.655898L70.787554,189.661751Z M92.979630,173.832448L88.425803,186.677990L79.367342,187.214924L67.060299,200.352208L54.556563,203.608004L53.016397,201.524191L44.005472,207.869173L43.394375,215.337832L47.938521,219.761618L48.037729,219.781275L54.227090,213.870270L63.231298,216.534770L71.594302,227.014591L79.978899,229.782789L88.396922,246.979055L89.021528,259.872481L101.837273,258.236846L111.806686,251.914720L123.025411,254.527164L126.659902,258.745626L140.615427,248.293117L153.921985,248.882594L156.499582,249.269374L159.510631,245.166560L169.484464,239.197610L169.601765,236.414782L161.825640,233.281687L156.550571,230.984806L148.149887,227.682982L142.916767,223.234577L139.309688,224.303168L135.341511,233.628597L122.577273,233.204196L119.508166,226.376026L114.838997,223.344352L110.976604,212.409640L110.900668,204.524843L104.376603,193.289541L103.892678,178.603548L107.817165,175.646021L92.979880,173.782837L92.979630,173.832448Z " data-id="11392" id="11392"/><path d="M181.744037,342.335917L177.915578,341.528689L166.429141,339.469498L153.663073,343.890177L141.864220,360.299147L143.885183,375.934950L142.494729,385.557917L134.110881,402.325305L134.139731,402.325430L136.019161,403.080757L135.841319,406.234536L144.021064,405.854792L144.268656,405.856441L142.737600,400.878279L151.092247,389.122073L162.918218,390.280187L174.140794,384.011605L175.901804,379.219690L170.246208,372.272024L175.023162,359.434462L178.960185,360.953199L183.413448,345.521984L181.744037,342.335917Z " data-id="11393" id="11393"/><path d="M0.000000,108.244101L1.190340,107.834760L0.461298,107.748882L0.000000,108.244101Z M5.765340,106.949640L7.223992,108.289030L7.148413,107.538706L5.765340,106.949640Z M3.310374,106.437376L2.822881,108.177584L4.786025,107.193195L3.310374,106.437376Z M11.092925,105.393187L12.454373,108.319867L14.815724,106.587087L11.092925,105.393187Z M18.841472,101.296650L15.653130,102.772238L16.870977,103.609777L18.841472,101.296650Z M45.522062,82.619409L45.195496,83.347780L45.354530,83.345355L45.522062,82.619409Z M69.226572,69.441115L69.713603,70.512977L70.031603,71.272245L69.226572,69.441115Z M61.040378,63.251610L60.534702,64.415126L61.351397,64.087085L61.040378,63.251610Z M71.453071,49.648611L71.363072,50.939839L72.507970,50.364747L71.453071,49.648611Z M74.788498,123.764337L80.666328,116.929370L84.708828,119.415871L89.976229,112.328075L98.155219,106.764960L98.870876,102.894547L116.425808,99.412247L116.443037,87.612082L122.058633,86.411595L125.466103,76.026923L139.821847,68.975430L149.704866,76.411755L152.900793,76.647553L153.520652,75.612281L165.481249,69.185638L183.839175,51.822165L196.769335,60.554142L200.313710,60.622028L203.680295,42.412751L192.460185,37.171730L174.940761,28.000347L158.207268,28.003676L123.903634,12.237444L113.880461,2.030739L101.170318,0.000000L76.467040,41.418248L82.406164,45.015031L83.906078,51.712026L78.259009,56.537319L69.788058,55.912282L67.855100,50.921674L58.046295,57.926132L66.917057,62.863347L76.551921,71.139522L74.667242,75.769790L69.424135,78.905445L72.570542,84.069924L64.683090,82.612192L50.982239,82.545126L45.417528,86.417788L48.985067,89.757497L43.846847,90.310731L39.874117,86.948878L41.792036,83.566274L34.396181,80.462486L19.970173,79.376700L26.925669,84.821143L3.109647,95.715434L13.494664,95.786173L24.870232,101.330762L28.918869,107.811237L42.270810,109.562977L46.026213,108.669973L44.186801,116.879023L52.894238,121.486258L61.866472,118.799206L74.722749,123.764002L74.788498,123.764337Z " data-id="11394" id="11394"/><path d="M75.938559,171.755576L74.140008,172.493647L74.874647,172.580457L75.938559,171.755576Z M152.900793,76.647553L149.704866,76.411755L139.821847,68.975430L125.466103,76.026923L122.058633,86.411595L116.443037,87.612082L116.425808,99.412247L98.870876,102.894547L98.155219,106.764960L89.976229,112.328075L84.708828,119.415871L80.666328,116.929370L74.788498,123.764337L74.803322,123.847498L80.501756,125.785496L86.562581,136.525702L85.750553,151.548187L77.251296,170.516806L81.724989,172.780485L76.565956,176.988695L75.560567,181.964913L81.224920,175.102603L92.980048,173.749365L92.979880,173.782837L107.817165,175.646021L103.892678,178.603548L104.376603,193.289541L110.900668,204.524843L110.976604,212.409640L114.838997,223.344352L119.508166,226.376026L122.577273,233.204196L135.341511,233.628597L139.309688,224.303168L142.916767,223.234577L148.149887,227.682982L156.550571,230.984806L156.725355,222.555501L158.327334,206.563481L165.233912,190.001996L166.925432,182.164444L175.252374,174.083567L176.942606,166.244995L176.570110,157.111592L186.449856,143.346159L188.702278,137.018889L191.601987,132.021893L190.271094,127.752091L188.471198,118.205062L173.988660,111.375790L169.115110,106.917621L156.663544,83.100352L152.900793,76.647553Z " data-id="11395" id="11395"/><path d="M223.784176,350.705962L223.780450,351.784828L224.268361,352.285004L223.784176,350.705962Z M208.086009,328.154502L207.632756,335.490770L198.819940,336.283338L196.930587,339.106526L201.715966,342.848048L198.045899,345.353285L187.846836,341.474493L181.744037,342.335917L183.413448,345.521984L178.960185,360.953199L175.023162,359.434462L170.246208,372.272024L175.901804,379.219690L174.140794,384.011605L162.918218,390.280187L151.092247,389.122073L142.737600,400.878279L144.268656,405.856441L144.265364,405.938915L146.966716,405.203178L159.541566,409.904243L160.613865,408.082256L180.688246,419.203491L184.206002,419.300112L201.011170,431.317140L198.539094,436.455347L210.293247,444.051824L210.373651,444.052708L217.554686,436.476505L221.022842,428.861963L219.953729,420.995905L226.035474,407.399917L219.621180,406.476206L212.861123,394.171479L190.859706,387.067154L190.847135,382.582985L195.539527,378.079115L223.023618,372.677508L226.493429,369.187687L230.118237,359.036731L230.132079,358.946224L223.610236,353.528080L234.644754,353.399329L225.839661,346.976998L221.534250,339.158950L212.390318,336.387112L208.254283,328.153616L208.086009,328.154502Z " data-id="11396" id="11396"/><path d="M127.175282,405.781787L127.586685,405.285689L127.588143,404.953354L127.175282,405.781787Z M82.257909,393.119680L81.684276,393.283050L82.170862,393.949529L82.257909,393.119680Z M209.896548,325.835008L210.788655,327.415594L210.951605,327.748511L209.896548,325.835008Z M157.631913,256.590290L155.257692,257.543014L151.203175,262.657751L143.850840,262.739344L134.925601,259.897426L131.292871,268.228441L132.754543,274.465997L126.235363,280.444835L128.022506,289.544400L122.114614,295.148268L112.644869,308.539840L107.729637,319.317661L102.156270,324.196633L103.100771,335.285644L93.335609,347.699306L92.483942,353.544473L73.990958,360.055826L70.557816,363.266809L70.632314,363.257619L76.807327,370.760313L84.083300,387.649019L81.769156,392.536278L99.897398,397.687667L121.874093,402.354387L125.157324,399.463123L130.528817,405.798645L132.832626,402.319735L134.110881,402.325305L142.494729,385.557917L143.885183,375.934950L141.864220,360.299147L153.663073,343.890177L166.429141,339.469498L177.915578,341.528689L181.744037,342.335917L187.846836,341.474493L198.045899,345.353285L201.715966,342.848048L196.930587,339.106526L198.819940,336.283338L207.632756,335.490770L208.086009,328.154502L208.091023,328.069943L206.447537,307.973726L208.048488,294.946574L205.859204,290.455414L193.877300,283.769630L192.196483,274.548191L187.157972,268.385527L172.955277,266.835434L172.944088,266.767248L167.783140,262.985861L169.291196,258.918766L162.537335,258.090269L157.631913,256.590290Z " data-id="11397" id="11397"/><path d="M42.994174,228.702408L42.338503,229.196816L42.334858,229.860306L42.994174,228.702408Z M23.132290,218.880019L23.045143,220.041582L23.447751,220.957210L23.132290,218.880019Z M48.020766,219.928531L50.976636,231.733429L44.719772,241.496781L33.683339,244.342545L22.902454,259.294421L30.952763,265.498230L32.876974,271.570059L27.414328,284.574049L31.811845,301.950031L41.207689,316.696146L43.928375,327.420128L49.182078,338.573089L52.029267,340.829897L59.885485,354.817751L70.549748,363.174116L70.557816,363.266809L73.990958,360.055826L92.483942,353.544473L93.335609,347.699306L103.100771,335.285644L102.156270,324.196633L107.729637,319.317661L112.644869,308.539840L122.114614,295.148268L128.022506,289.544400L126.235363,280.444835L132.754543,274.465997L131.292871,268.228441L134.925601,259.897426L143.850840,262.739344L151.203175,262.657751L155.257692,257.543014L157.631913,256.590290L156.945464,253.559636L156.004851,251.072444L156.499582,249.269374L153.921985,248.882594L140.615427,248.293117L126.659902,258.745626L123.025411,254.527164L111.806686,251.914720L101.837273,258.236846L89.021528,259.872481L88.396922,246.979055L79.978899,229.782789L71.594302,227.014591L63.231298,216.534770L54.227090,213.870270L48.037729,219.781275L48.020766,219.928531Z " data-id="11398" id="11398"/><path d="M343.866035,239.335693L344.014731,234.312108L343.960411,234.289574L342.015841,222.998368L342.062611,222.978750L341.801905,219.311016L341.897845,215.814430L326.300725,207.961016L319.306112,200.430203L315.630652,198.460817L299.001016,195.647187L295.517162,190.446085L285.768288,182.532773L279.481601,174.708398L276.842543,167.695335L275.136112,170.425056L265.929515,174.503204L263.713241,205.747549L271.080029,214.170336L268.617507,238.519071L273.245695,251.043172L280.251359,251.321291L285.132279,251.648473L291.857230,251.123727L301.477273,245.597556L317.228830,256.136913L340.413397,246.861571L343.040463,245.629960L343.866035,239.335693Z " data-id="11399" id="11399"/><path d="M540.625531,358.473523L541.980786,349.113413L546.979461,339.924708L548.163193,330.750375L547.876802,326.455982L541.608090,324.208126L538.181057,322.059106L533.064889,319.511486L534.403280,323.328038L532.237356,342.746264L534.465220,346.718448L532.039380,352.431697L531.946135,355.572208L533.712433,358.839016L536.397278,359.754408L538.339657,359.342120L540.625531,358.473523Z " data-id="11400" id="11400"/><path d="M527.306965,372.100430L526.647576,370.594352L526.033504,367.384881L525.977735,365.145336L525.071222,364.451718L524.216166,362.234311L523.986192,360.091529L521.745535,359.164305L520.057893,362.708232L515.545480,366.683361L517.671075,373.527167L521.063757,374.420861L523.039595,375.263432L524.467594,375.583398L528.204070,375.929780L530.488633,375.150774L527.306965,372.100430Z " data-id="11401" id="11401"/><path d="M536.397278,359.754408L533.712433,358.839016L531.946135,355.572208L529.110403,355.918659L527.265081,356.595866L525.263786,358.084045L523.986192,360.091529L524.216166,362.234311L525.071222,364.451718L525.977735,365.145336L526.033504,367.384881L528.257409,364.187076L529.544333,362.358546L531.718203,360.509324L536.397278,359.754408Z " data-id="11402" id="11402"/><path d="M541.746987,367.584230L540.976577,365.364296L541.063141,361.775511L538.339657,359.342120L536.397278,359.754408L531.718203,360.509324L529.544333,362.358546L528.257409,364.187076L526.033504,367.384881L526.647576,370.594352L527.306965,372.100430L530.488633,375.150774L533.567043,374.080845L538.019847,374.676560L539.374200,375.536300L541.031802,371.009141L541.746987,367.584230Z M525.185753,278.316745L524.565742,313.200357L528.700769,315.326767L529.826961,317.717243L533.064889,319.511486L538.181057,322.059106L541.608090,324.208126L547.876802,326.455982L550.881682,329.511017L551.909470,331.542617L552.708622,335.018499L559.963125,341.091402L564.702049,346.069309L565.454289,344.168915L565.649165,341.562994L566.917069,339.017048L575.669144,337.879651L578.155815,334.672588L578.413503,320.594072L589.268625,311.688365L595.193040,307.488730L589.024046,305.780633L573.427069,309.619119L562.160993,299.264785L553.659660,299.588121L550.652985,296.533176L542.537486,294.604983L535.289357,288.617147L529.518664,281.336725L525.185753,278.316745Z " data-id="11403" id="11403"/><path d="M570.066009,354.436678L568.036122,351.535448L566.381568,349.072844L564.702049,346.069309L560.596506,348.514035L559.056115,350.707866L556.750251,354.087471L554.137350,356.042130L551.660772,359.783207L553.232144,362.249047L556.050034,361.367560L563.679355,357.930728L567.641739,356.744012L570.066009,354.436678Z " data-id="11404" id="11404"/><path d="M548.928250,360.485269L547.237278,360.353605L545.457153,360.131949L543.604547,360.541703L541.063141,361.775511L540.976577,365.364296L541.746987,367.584230L541.031802,371.009141L544.835978,370.457471L548.884785,365.775374L550.272833,364.480611L553.232144,362.249047L551.660772,359.783207L548.928250,360.485269Z " data-id="11405" id="11405"/><path d="M554.137350,356.042130L556.750251,354.087471L559.056115,350.707866L560.596506,348.514035L564.702049,346.069309L559.963125,341.091402L552.708622,335.018499L551.909470,331.542617L550.881682,329.511017L547.876802,326.455982L548.163193,330.750375L546.979461,339.924708L541.980786,349.113413L540.625531,358.473523L538.339657,359.342120L541.063141,361.775511L543.604547,360.541703L545.457153,360.131949L547.237278,360.353605L548.928250,360.485269L551.660772,359.783207L554.137350,356.042130Z " data-id="11406" id="11406"/><path d="M531.946135,355.572208L532.039380,352.431697L534.465220,346.718448L532.237356,342.746264L534.403280,323.328038L533.064889,319.511486L529.826961,317.717243L528.700769,315.326767L524.565742,313.200357L525.935987,335.748180L525.870160,343.458893L523.763019,347.907040L523.779803,352.028384L521.745535,359.164305L523.986192,360.091529L525.263786,358.084045L527.265081,356.595866L529.110403,355.918659L531.946135,355.572208Z " data-id="11407" id="11407"/><path d="M371.831529,399.610019L368.493594,404.474197L368.516103,404.557321L368.351177,404.888720L368.105844,405.387019L367.867658,405.386555L367.527225,405.883770L367.614963,405.883941L367.940112,406.133217L367.939629,406.382455L367.205176,406.464099L367.184728,406.380980L366.939658,406.739415L367.134287,407.035357L367.120857,407.127973L381.161655,422.429104L386.787356,432.732590L387.097011,441.864071L381.775136,445.009544L377.997220,452.722459L374.392956,454.791252L375.026128,466.414262L372.486921,468.484676L379.685366,469.992560L380.490232,477.299596L405.256392,499.007155L405.256329,499.048695L413.062562,497.472161L416.239695,489.319869L414.170245,488.475616L408.675681,478.304036L408.532974,472.658953L400.167010,461.214739L400.879940,454.111745L398.488433,447.089200L413.849060,432.526429L407.733647,429.454949L400.282772,422.740993L400.452817,418.790828L403.562809,415.303790L401.029738,413.395502L396.327243,409.928380L395.787560,405.996763L374.142840,403.407675L371.831529,399.610019Z " data-id="11421" id="11421"/><path d="M726.393112,748.552360L724.082838,754.185207L729.290157,763.445199L728.208712,769.395460L731.614762,776.561168L725.354340,782.121807L708.199685,790.235518L703.965699,788.652880L701.477542,782.446606L701.924462,776.066388L685.315186,774.924782L687.897654,790.992467L693.684991,790.828284L695.109464,793.926339L686.997900,813.912246L686.999730,813.960055L691.850060,818.619524L694.649829,825.173060L708.288821,830.715674L713.787969,829.130219L740.973563,830.827554L740.811194,832.571458L781.660491,850.335821L785.268961,847.588837L785.062284,827.003505L788.257060,823.343792L782.984993,814.723220L784.761467,800.441716L776.548499,798.799815L772.348436,792.417227L758.224901,789.956074L742.771505,777.534364L740.454161,765.502762L732.559894,757.049778L726.073370,754.737126L726.393566,748.842521L726.393112,748.552360Z M772.831221,745.849226L769.796733,746.519956L769.796895,746.602134L770.453337,746.933349L771.273202,746.848241L772.831385,745.931703L772.831221,745.849226Z M857.178560,858.258006L855.732475,854.788717L860.527798,848.008271L865.863614,835.203063L874.602334,826.150659L875.151812,820.484625L863.299376,805.416058L863.375870,802.005568L870.402375,795.246950L870.539707,781.611361L868.842589,775.474660L871.765469,765.790825L880.409301,756.649630L881.324539,751.330970L880.409169,747.412849L875.612669,738.858606L880.551318,730.995961L877.583083,727.050296L872.794888,727.912024L863.983369,725.039906L855.108083,729.252372L849.339448,730.054007L839.243055,725.961508L831.982606,721.424910L826.546616,718.179286L823.733558,719.429034L820.806264,723.013208L819.555553,741.435756L816.471006,742.603501L798.343208,731.839644L792.998448,731.996616L773.319910,745.751660L773.322761,745.848176L770.459064,749.838562L771.873022,759.298603L777.622153,761.029013L780.913112,765.504526L794.296145,767.798056L796.523382,772.939554L803.412551,771.097187L804.649114,773.584022L815.079304,776.214296L815.887122,770.982105L828.717677,781.657110L822.087435,789.228480L821.578308,781.675993L816.075855,781.026203L828.125540,807.474245L840.070542,823.296276L841.478551,828.023671L835.019962,839.246859L830.262048,841.750424L826.018700,852.469427L832.525723,860.337986L855.312473,873.471464L875.567110,889.181602L887.860515,906.740193L895.308832,924.230002L896.912686,939.000035L895.103923,938.839557L898.591155,950.033324L901.024207,949.004468L902.057061,929.814580L896.306172,916.491183L897.171509,910.075040L893.918612,901.554742L889.891957,899.214088L891.533916,889.726513L886.702349,880.236631L877.594123,875.203226L872.918922,879.255774L860.843076,868.570024L855.234327,867.669163L854.039845,862.191934L857.343246,858.361512L857.178560,858.258006Z " data-id="11422" id="11422"/><path d="M374.772393,283.497378L372.034114,287.601274L368.339835,296.302177L351.869488,308.375325L346.101664,315.693000L336.102326,320.425252L332.931327,328.935433L339.252614,333.441931L341.710957,347.098282L351.694948,356.354764L358.075439,359.604648L366.096302,353.571863L368.180963,351.726099L368.201894,348.857203L375.057159,342.585924L375.000587,336.578989L372.460184,327.046904L376.190576,327.131388L376.156956,322.200349L376.307991,310.181011L372.883508,307.846492L380.066824,293.225481L378.412816,287.350682L374.772393,283.497378Z " data-id="11423" id="11423"/><path d="M690.476594,702.992566L689.906167,705.898844L690.563364,707.226277L690.476594,702.992566Z M613.790691,588.998623L613.806080,589.093345L620.201186,595.481653L632.660790,602.694443L641.515661,609.411802L646.521929,617.791006L663.582318,630.640721L667.771182,638.687999L675.729402,643.826045L673.433787,644.990597L681.140923,656.602740L686.337029,672.284946L684.630847,684.157633L694.647768,693.358635L688.176262,700.754948L697.792996,709.208464L680.487421,718.112882L675.819364,724.676551L677.878266,732.393431L674.866991,754.393865L660.671057,756.069897L657.965751,758.562421L657.564924,768.607175L652.311986,770.438029L654.627257,787.701469L660.702160,788.940368L686.835308,813.894822L686.997900,813.912246L695.109464,793.926339L693.684991,790.828284L687.897654,790.992467L685.315186,774.924782L701.924462,776.066388L701.477542,782.446606L703.965699,788.652880L708.199685,790.235518L725.354340,782.121807L731.614762,776.561168L728.208712,769.395460L729.290157,763.445199L724.082838,754.185207L726.393112,748.552360L726.392918,748.427749L742.230636,748.649241L749.850614,742.159981L758.300880,741.728142L769.718190,746.536855L769.796733,746.519956L772.831221,745.849226L772.912143,745.840985L772.911828,745.682904L773.240733,745.599127L773.241073,745.768862L773.319910,745.751660L792.998448,731.996616L798.343208,731.839644L816.471006,742.603501L819.555553,741.435756L820.806264,723.013208L823.733558,719.429034L811.468741,704.995283L801.389033,692.020266L793.803210,685.249138L778.701879,677.173153L762.935972,677.005884L760.834757,668.906627L746.154727,659.737172L741.671384,664.889083L736.030668,663.886541L719.028624,651.103435L712.554027,648.778873L704.691883,641.291468L707.222399,639.604070L703.314079,636.666909L689.359932,630.877215L684.454858,624.111345L671.768207,619.089478L659.478045,595.940263L649.589655,588.954403L642.955230,597.031291L635.271064,595.722389L625.345139,590.618021L617.333817,583.934871L613.790691,588.998623Z " data-id="11424" id="11424"/><path d="M509.206615,526.590556L510.843374,527.587086L511.333897,527.587320L511.581070,527.919148L511.028106,526.527191L509.206685,526.445320L509.206615,526.590556Z M482.711671,468.218000L477.653735,471.938153L463.280527,472.943476L456.414119,471.957297L456.660924,481.635860L445.728941,495.731112L441.296024,489.030685L436.331469,489.697654L430.934388,490.734080L421.700966,490.972432L416.239695,489.319869L413.062562,497.472161L405.256329,499.048695L405.256266,499.090234L416.783803,508.736781L430.297613,505.102499L452.477857,511.022545L497.089084,522.017539L500.202510,520.857526L510.516112,525.179179L510.511429,525.108352L503.102538,514.667521L498.781551,512.630513L499.832048,508.477858L508.380312,505.649835L512.646289,498.720294L517.514767,497.963067L525.051233,490.407610L532.656586,482.132580L532.796637,480.603448L531.284542,477.147252L528.847963,475.867518L522.527400,475.229799L518.564316,476.681250L513.190494,478.528768L506.792574,475.201925L502.804275,475.487844L497.917763,475.527706L489.665617,472.608000L482.711671,468.218000Z " data-id="11425" id="11425"/><path d="M245.542246,500.289137L244.798464,502.362312L245.617654,502.199352L245.542246,500.289137Z M308.262292,428.827507L307.681562,431.731747L308.830755,430.655833L308.262292,428.827507Z M325.798431,416.501677L326.938863,417.749393L330.456246,418.090278L325.798431,416.501677Z M319.270889,409.513447L318.941976,410.010526L319.514847,409.928848L319.270889,409.513447Z M317.555126,408.595645L311.410425,413.395382L316.812289,411.831258L317.555126,408.595645Z M314.493517,390.407758L314.736163,391.321653L314.982026,390.824382L314.493517,390.407758Z M307.635225,386.488853L307.385913,387.401501L307.958825,387.486056L307.635225,386.488853Z M333.593499,369.534496L322.632782,371.583774L328.436897,372.012465L333.593499,369.534496Z M247.427597,369.130757L246.528317,369.460505L246.852462,369.793274L247.427597,369.130757Z M244.493830,365.884119L245.388999,367.464369L245.472095,366.883062L244.493830,365.884119Z M258.312329,365.761585L258.208310,372.485210L266.636861,369.771548L258.312329,365.761585Z M278.829156,365.905818L281.111031,368.734723L287.735433,367.840086L278.829156,365.905818Z M264.779219,362.543834L271.554950,365.718470L273.354551,365.225871L264.779219,362.543834Z M230.118237,359.036731L226.493429,369.187687L223.023618,372.677508L195.539527,378.079115L190.847135,382.582985L190.859706,387.067154L212.861123,394.171479L219.621180,406.476206L226.035474,407.399917L219.953729,420.995905L221.022842,428.861963L217.554686,436.476505L210.373651,444.052708L210.373070,444.218274L218.591733,457.114464L217.607761,458.439472L233.912265,476.509223L236.164720,488.969046L249.246706,493.245199L252.618490,488.274442L258.733483,468.618838L263.824560,463.321527L278.985302,454.815102L273.522452,448.489997L276.570681,441.027488L291.610533,445.967796L292.452424,436.921152L296.137912,435.935321L307.863644,424.841908L309.675437,419.865585L318.603307,415.239277L299.061268,412.699032L303.653236,408.311126L298.617130,395.596950L303.363340,393.534252L301.829717,386.639902L274.290525,380.835063L271.441093,376.094950L263.362672,371.422110L256.415637,370.487491L230.456968,359.030403L230.118237,359.036731Z M230.895619,326.406780L220.503560,330.355770L228.802694,341.176411L239.014380,342.372526L248.995956,339.250447L246.959962,336.338151L236.999072,333.317672L248.037718,332.107712L230.895619,326.406780Z M338.888283,270.138655L334.003611,266.048427L327.303909,264.059894L322.044791,266.521609L317.232424,273.099022L310.006698,297.577753L311.594201,308.301296L305.596902,309.791721L299.171617,315.689592L300.287371,321.582941L296.538774,328.309303L263.924323,314.485405L258.251091,314.623978L259.081350,324.007011L259.339628,324.007808L265.637001,322.532775L279.492983,334.361941L289.532027,338.707224L299.465941,352.348451L327.382482,368.606365L353.942451,373.232199L353.942361,373.274935L360.571297,371.018580L360.743360,367.158410L376.210078,357.082181L372.014388,352.435818L368.180963,351.726099L366.096302,353.571863L358.075439,359.604648L351.694948,356.354764L341.710957,347.098282L339.252614,333.441931L332.931327,328.935433L336.102326,320.425252L346.101664,315.693000L351.869488,308.375325L368.339835,296.302177L372.034114,287.601274L374.772393,283.497378L371.751551,279.627800L368.707195,278.536753L353.870309,284.651355L344.036895,277.723047L338.888283,270.138655Z " data-id="11426" id="11426"/><path d="M533.751785,408.852403L530.120203,405.813699L529.894007,404.027752L526.134729,406.191408L510.028330,411.735807L507.965035,414.300930L500.906076,419.510361L496.302318,420.082232L494.830029,425.051341L473.723291,436.728525L473.674949,445.423611L485.123417,459.280265L482.711671,468.218000L489.665617,472.608000L497.917763,475.527706L502.804275,475.487844L506.792574,475.201925L508.159054,471.119859L514.334623,458.942924L521.156957,454.814843L523.154821,449.562835L531.401143,445.485042L533.161730,441.582632L524.408670,435.905006L521.962691,427.097558L532.230699,425.833421L534.409302,420.934157L532.150893,412.391180L533.751785,408.852403Z " data-id="11427" id="11427"/><path d="M544.259070,399.961505L546.085772,398.387744L546.633699,395.504578L546.883512,391.464259L543.982129,389.033697L542.417285,386.836966L537.173580,383.214611L537.318698,388.767732L534.983801,394.657391L533.974676,396.836007L532.077826,402.534146L530.404225,403.027373L529.894007,404.027752L530.120203,405.813699L533.751785,408.852403L536.521809,406.266872L540.503192,402.214471L544.259070,399.961505Z " data-id="11428" id="11428"/><path d="M544.259070,399.961505L540.503192,402.214471L536.521809,406.266872L533.751785,408.852403L532.150893,412.391180L534.409302,420.934157L532.230699,425.833421L521.962691,427.097558L524.408670,435.905006L533.161730,441.582632L531.401143,445.485042L523.154821,449.562835L521.156957,454.814843L514.334623,458.942924L508.159054,471.119859L506.792574,475.201925L513.190494,478.528768L518.564316,476.681250L522.527400,475.229799L528.847963,475.867518L530.185200,470.971993L530.098062,467.568466L529.941791,464.884230L529.219089,460.959635L536.504607,454.129395L539.188648,451.456512L547.048220,442.906656L546.570167,437.990355L542.622934,436.395193L543.485181,425.078181L547.012791,417.274084L542.055743,414.272425L552.411668,413.092547L554.139990,407.847354L550.508088,401.224199L544.259070,399.961505Z " data-id="11429" id="11429"/><path d="M573.851648,380.594713L571.376798,380.931581L567.932079,381.654593L563.959241,382.480917L560.617449,383.648043L559.144197,385.122559L559.395917,387.894618L558.423031,391.506436L561.644207,392.492549L565.466830,392.746348L569.826033,389.668140L573.528899,385.264178L573.851648,380.594713Z " data-id="11430" id="11430"/><path d="M561.644207,392.492549L558.423031,391.506436L555.925791,390.947279L553.576404,389.398300L550.747116,389.834140L546.883512,391.464259L546.633699,395.504578L546.085772,398.387744L544.259070,399.961505L550.508088,401.224199L554.139990,407.847354L552.411668,413.092547L542.055743,414.272425L547.012791,417.274084L543.485181,425.078181L542.622934,436.395193L546.570167,437.990355L553.457180,440.042469L560.414262,441.196375L570.622992,440.914085L579.399922,440.492987L581.265461,440.440862L580.053296,438.322952L577.749459,434.982093L574.984793,427.708201L572.789501,428.664852L564.924183,433.452573L561.198948,433.645517L548.128108,432.927846L549.476900,430.112883L565.113533,416.777176L574.283557,400.659817L574.308180,398.238592L572.847688,396.576067L569.914291,396.477851L565.047055,397.149821L565.466830,392.746348L561.644207,392.492549Z " data-id="11431" id="11431"/><path d="M581.265461,440.440862L579.399922,440.492987L578.722284,445.082446L578.372496,448.587633L577.245523,453.100667L573.772089,463.055693L573.643368,516.209273L573.895845,519.160273L575.204868,520.830864L580.193714,524.548028L583.854417,528.660061L589.519342,527.605007L599.952331,511.082463L602.437154,510.833934L613.771968,501.995943L624.339923,501.427267L636.621044,484.490957L639.872317,483.052368L635.633243,481.315057L624.258300,477.781521L620.450955,474.930978L617.555756,462.822222L605.521040,461.187255L601.053416,456.741062L589.670898,452.935468L588.719547,443.729953L584.586664,441.872366L581.265461,440.440862Z " data-id="11432" id="11432"/><path d="M537.173580,383.214611L534.984997,380.854158L531.647909,378.793388L528.204070,375.929780L524.467594,375.583398L523.039595,375.263432L525.649606,380.122022L526.026762,387.909685L526.244970,393.101846L528.900109,399.842172L530.404225,403.027373L532.077826,402.534146L533.974676,396.836007L534.983801,394.657391L537.318698,388.767732L537.173580,383.214611Z " data-id="11433" id="11433"/><path d="M565.730137,371.945701L562.240739,374.461271L558.802657,375.272418L554.978385,374.929899L552.189755,376.888385L550.211003,379.452015L553.882635,380.606669L556.619806,380.083176L559.000786,379.479519L576.975874,374.502251L585.057992,374.727162L587.649785,375.371309L588.598293,377.765342L592.968398,378.629318L598.265868,377.586103L601.304963,374.991739L603.805202,372.232874L602.684029,370.112209L594.834368,371.945014L570.832038,370.370263L569.624000,371.568474L565.730137,371.945701Z " data-id="11434" id="11434"/><path d="M546.570167,437.990355L547.048220,442.906656L539.188648,451.456512L536.504607,454.129395L529.219089,460.959635L529.941791,464.884230L531.798161,464.564685L536.359603,469.370270L550.363352,468.091233L560.462526,463.691665L573.936566,448.889985L578.372496,448.587633L578.722284,445.082446L579.399922,440.492987L570.622992,440.914085L560.414262,441.196375L553.457180,440.042469L546.570167,437.990355Z " data-id="11435" id="11435"/><path d="M556.619806,380.083176L555.887703,382.702516L556.478147,384.927110L559.144197,385.122559L560.617449,383.648043L563.959241,382.480917L567.932079,381.654593L571.376798,380.931581L573.851648,380.594713L575.863325,379.462948L579.049846,379.106091L583.379206,378.448502L588.598293,377.765342L587.649785,375.371309L585.057992,374.727162L576.975874,374.502251L559.000786,379.479519L556.619806,380.083176Z " data-id="11436" id="11436"/><path d="M504.625249,380.511704L500.360501,383.853021L495.351027,385.780149L476.441196,389.064463L469.257895,389.345066L464.387387,386.336825L460.370930,385.278556L453.092583,385.202243L452.925780,385.654812L453.962831,388.136630L458.802902,390.159778L471.803803,398.867908L478.162173,394.037447L487.876620,399.155744L488.357885,404.251661L497.546438,409.562255L496.146465,417.397331L496.302318,420.082232L500.906076,419.510361L507.965035,414.300930L510.028330,411.735807L526.134729,406.191408L529.894007,404.027752L524.348599,402.295994L520.748646,400.331886L517.137542,397.920571L508.476084,385.427315L504.625249,380.511704Z " data-id="11437" id="11437"/><path d="M565.649165,341.562994L565.454289,344.168915L564.702049,346.069309L566.381568,349.072844L568.036122,351.535448L570.066009,354.436678L569.294660,358.940327L567.727448,363.375019L563.933330,367.782055L559.215846,370.600610L554.736233,372.426787L554.969566,374.571587L554.978385,374.929899L558.802657,375.272418L562.240739,374.461271L565.730137,371.945701L566.976316,368.863632L576.132659,355.792481L580.447081,340.795964L571.537203,342.745470L565.649165,341.562994Z " data-id="11438" id="11438"/><path d="M642.619386,482.705475L639.872317,483.052368L636.621044,484.490957L624.339923,501.427267L613.771968,501.995943L602.437154,510.833934L599.952331,511.082463L589.519342,527.605007L583.854417,528.660061L580.193714,524.548028L575.204868,520.830864L574.672508,524.342617L571.275484,530.946280L573.527526,535.458419L578.034360,534.438568L580.798239,541.357878L586.540253,546.580981L596.235111,540.037325L600.976578,541.072646L605.404517,553.685193L609.436246,557.967920L619.504227,562.082853L616.442048,573.826041L617.333817,583.934871L625.345139,590.618021L635.271064,595.722389L642.955230,597.031291L649.589655,588.954403L659.478045,595.940263L671.768207,619.089478L684.454858,624.111345L689.359932,630.877215L703.314079,636.666909L707.222399,639.604070L713.523585,638.885896L723.398566,629.185583L723.492005,622.995006L727.820341,618.565506L727.983576,605.287821L721.755534,605.377475L714.730786,599.122755L718.155468,594.271313L720.928736,582.084592L724.419552,579.652209L731.554864,567.608326L738.507032,558.707433L742.613968,553.130323L739.449283,550.815071L726.321349,527.819652L725.068166,522.064570L724.290906,518.502178L719.379150,514.115257L712.806123,511.079999L699.028397,501.168059L693.479000,499.804767L683.095658,493.828223L679.610438,489.714845L675.930464,488.385596L664.152538,497.064844L650.874848,495.920865L641.741318,486.586387L642.619386,482.705475Z " data-id="11439" id="11439"/><path d="M453.962831,388.136630L453.495224,390.748025L448.754074,396.430119L451.754290,399.398270L445.339975,416.417401L436.373976,423.644042L433.125901,428.748384L428.667860,442.487921L433.394844,446.935476L433.347810,463.068788L430.031099,465.486639L431.316722,485.260072L430.934388,490.734080L436.331469,489.697654L441.296024,489.030685L445.728941,495.731112L456.660924,481.635860L456.414119,471.957297L463.280527,472.943476L477.653735,471.938153L482.711671,468.218000L485.123417,459.280265L473.674949,445.423611L473.723291,436.728525L494.830029,425.051341L496.302318,420.082232L496.146465,417.397331L497.546438,409.562255L488.357885,404.251661L487.876620,399.155744L478.162173,394.037447L471.803803,398.867908L458.802902,390.159778L453.962831,388.136630Z " data-id="11440" id="11440"/><path d="M542.812466,374.635890L540.254314,375.243002L539.374200,375.536300L538.019847,374.676560L533.567043,374.080845L530.488633,375.150774L528.204070,375.929780L531.647909,378.793388L534.984997,380.854158L537.173580,383.214611L542.417285,386.836966L543.982129,389.033697L546.883512,391.464259L550.747116,389.834140L553.576404,389.398300L555.925791,390.947279L558.423031,391.506436L559.395917,387.894618L559.144197,385.122559L556.478147,384.927110L555.887703,382.702516L556.619806,380.083176L553.882635,380.606669L550.211003,379.452015L546.227408,376.245033L544.922933,373.861000L542.812466,374.635890Z " data-id="11441" id="11441"/><path d="M528.900109,399.842172L526.244970,393.101846L526.026762,387.909685L525.649606,380.122022L523.039595,375.263432L521.063757,374.420861L517.671075,373.527167L514.206316,373.351441L509.819542,375.351610L506.782074,378.033664L504.625249,380.511704L508.476084,385.427315L517.137542,397.920571L520.748646,400.331886L524.348599,402.295994L529.894007,404.027752L530.404225,403.027373L528.900109,399.842172Z " data-id="11442" id="11442"/><path d="M578.372496,448.587633L573.936566,448.889985L560.462526,463.691665L550.363352,468.091233L536.359603,469.370270L531.798161,464.564685L529.941791,464.884230L530.098062,467.568466L530.185200,470.971993L528.847963,475.867518L531.284542,477.147252L532.796637,480.603448L532.656586,482.132580L531.706338,489.959565L550.812935,496.618301L550.528516,512.946895L555.738643,515.047698L559.728180,521.306305L570.762509,528.359597L571.275484,530.946280L574.672508,524.342617L575.204868,520.830864L573.895845,519.160273L573.643368,516.209273L573.772089,463.055693L577.245523,453.100667L578.372496,448.587633Z " data-id="11443" id="11443"/><path d="M554.978385,374.929899L554.969566,374.571587L554.736233,372.426787L550.296926,372.369157L548.547364,373.313643L544.922933,373.861000L546.227408,376.245033L550.211003,379.452015L552.189755,376.888385L554.978385,374.929899Z " data-id="11444" id="11444"/><path d="M446.300947,387.083974L441.004310,388.119818L436.912562,387.868863L432.720192,390.577961L419.749299,400.775521L415.693570,401.956992L407.404305,415.257498L403.562809,415.303790L400.452817,418.790828L400.282772,422.740993L407.733647,429.454949L413.849060,432.526429L398.488433,447.089200L400.879940,454.111745L400.167010,461.214739L408.532974,472.658953L408.675681,478.304036L414.170245,488.475616L416.239695,489.319869L421.700966,490.972432L430.934388,490.734080L431.316722,485.260072L430.031099,465.486639L433.347810,463.068788L433.394844,446.935476L428.667860,442.487921L433.125901,428.748384L436.373976,423.644042L445.339975,416.417401L451.754290,399.398270L448.754074,396.430119L453.495224,390.748025L453.962831,388.136630L452.925780,385.654812L446.300947,387.083974Z " data-id="11445" id="11445"/><path d="M590.018221,320.005200L590.502581,318.749004L593.495732,310.939203L594.906491,308.072479L595.193040,307.488730L589.268625,311.688365L578.413503,320.594072L578.155815,334.672588L575.669144,337.879651L566.917069,339.017048L565.649165,341.562994L571.537203,342.745470L580.447081,340.795964L576.132659,355.792481L566.976316,368.863632L565.730137,371.945701L569.624000,371.568474L570.832038,370.370263L594.834368,371.945014L602.684029,370.112209L603.805202,372.232874L606.486616,373.054288L608.643338,373.979302L613.921480,372.307971L615.271709,369.581140L609.980344,350.636582L595.983457,341.259710L592.581555,326.474256L590.018221,320.005200Z " data-id="11446" id="11446"/></g></svg>